<!DOCTYPE svg PUBLIC "-//W3C//DTD SVG 1.1//EN" "http://www.w3.org/Graphics/SVG/1.1/DTD/svg11.dtd">
<!-- Uploaded to: SVG Repo, www.svgrepo.com, Transformed by: SVG Repo Mixer Tools -->
<svg fill="#a1a3a8" height="190px" width="190px" version="1.1" id="Capa_1" xmlns="http://www.w3.org/2000/svg" xmlns:xlink="http://www.w3.org/1999/xlink" viewBox="-19.6 -19.6 529.20 529.20" xml:space="preserve">
<g id="SVGRepo_bgCarrier" stroke-width="0"/>
<g id="SVGRepo_tracerCarrier" stroke-linecap="round" stroke-linejoin="round" stroke="#a1a3a8" stroke-width="12.74"> <g> <path d="M0,383.301h232.108L186.73,258.939H45.363L0,383.301z M176.021,274.255l34.19,93.732H21.896l34.175-93.732H176.021z"/> <path d="M444.637,258.939H303.27l-45.378,124.362H490L444.637,258.939z M313.979,274.255h119.95l34.175,93.732H279.788 L313.979,274.255z"/> <path d="M315.684,106.699H174.316l-45.378,124.362h232.123L315.684,106.699z M185.025,122.014h119.95l34.19,93.732h-188.33 L185.025,122.014z"/> </g> </g>
<g id="SVGRepo_iconCarrier"> <g> <path d="M0,383.301h232.108L186.73,258.939H45.363L0,383.301z M176.021,274.255l34.19,93.732H21.896l34.175-93.732H176.021z"/> <path d="M444.637,258.939H303.27l-45.378,124.362H490L444.637,258.939z M313.979,274.255h119.95l34.175,93.732H279.788 L313.979,274.255z"/> <path d="M315.684,106.699H174.316l-45.378,124.362h232.123L315.684,106.699z M185.025,122.014h119.95l34.19,93.732h-188.33 L185.025,122.014z"/> </g> </g>
</svg>