<?xml version="1.0" encoding="UTF-8"?>
<svg xmlns="http://www.w3.org/2000/svg" version="1.1" viewBox="0 0 286 44">
  <defs>
    <style>
      .cls-1 {
        fill: #ed1944;
      }
    </style>
  </defs>
  <!-- Generator: Adobe Illustrator 28.6.0, SVG Export Plug-In . SVG Version: 1.2.0 Build 709)  -->
  <g>
    <g id="Layer_1">
      <g>
        <path class="cls-1" d="M284.4,27c-12.1-14.6-30.3-24-50.8-24h0c-20.4,0-38.7,9.3-50.8,24-1.1,1.3-1,3.2.2,4.4h0l8.8,8.8c.8.8,2.2.8,3-.2,8.6-11.2,22.8-18.6,38.8-18.6s30.3,7.3,38.8,18.6c.7.9,2.1,1,3,.2l8.8-8.8c1.2-1.2,1.3-3.1.2-4.4Z"/>
        <path class="cls-1" d="M6.3,24.3h0c.2.5.7.8,1.2.8h3.9c.9,0,1.5-.9,1.2-1.7L6.3,7.1c-.2-.5-.7-.8-1.2-.8H1.2c-.8,0-1.4.8-1.2,1.7l6.2,16.4Z"/>
        <rect class="cls-1" x="109.4" y="37.6" width="6.3" height="6.3" rx="1.2" ry="1.2"/>
        <rect class="cls-1" x="125.1" y="37.6" width="12.5" height="6.3" rx="1.2" ry="1.2"/>
        <path class="cls-1" d="M23.8,6.2h0s-3.7,0-3.7,0c-.7,0-1.2.5-1.2,1.2v18.9c0,1-.8,1.9-1.9,1.9H3.8c-.4,0-.7.1-1,.4l-2.4,2.3c-.2.2-.4.6-.4.9v1.4c0,.7.5,1.2,1.2,1.2h14.6c5,0,9-3.9,9.2-8.8V7.5c0-.7-.5-1.2-1.2-1.2Z"/>
        <path class="cls-1" d="M154.4,8.7h-8.8c-.4,0-.7.1-1,.4l-2.3,2.3c-.2.2-.4.6-.4,1v1.4c0,.7.5,1.2,1.2,1.2h12.6c1,0,1.9.8,1.9,1.9v10.6s-20.2,0-20.2,0c.2-.6.3-1.3.3-2h0s0-8.6,0-8.6c0-.7-.6-1.2-1.2-1.2h-3.8c-.7,0-1.2.6-1.2,1.2v9.4c0,1-.8,1.9-1.9,1.9h-13.8v-9.4c0-6-4.3-9.4-9.4-9.4h-8.8c-.4,0-.7.1-1,.4l-2.3,2.3c-.2.2-.4.6-.4,1v1.4c0,.7.5,1.2,1.2,1.2h12.6c1,0,1.9.8,1.9,1.9v10.6s-20.7,0-20.7,0c-.7,0-1.2.6-1.2,1.2v3.8c0,.7.6,1.2,1.2,1.2h5v1.3c0,1-.8,1.9-1.9,1.9h-15.2c-.9,0-1.7-.8-1.7-1.7v-12.7c0-.7-.6-1.2-1.2-1.2h-3.8c-.7,0-1.2.5-1.2,1.2v11.3c0,6.2,3.1,9.4,9.4,9.4h12.7c5.5,0,9.3-3.5,9.3-9.4h14.4c.7,0,1.2-.6,1.2-1.2v-1.9h0s2.7,2.8,2.7,2.8c.2.2.5.4.9.4h8.9c3,0,5.6-1.4,7.3-3.6v1.7c0,.7.6,1.2,1.2,1.2h25.4c.9,0,1.5-.7,1.5-1.5v-4.5h0v-.2h0v-.2h0v-9.2c0-6-4.3-9.4-9.4-9.4Z"/>
        <rect class="cls-1" x="157.5" y="37.6" width="6.3" height="6.3" rx="1.2" ry="1.2"/>
        <path class="cls-1" d="M56.3,9.2h-8.8c-.4,0-.7.1-1,.4l-2.3,2.3c-.2.2-.4.6-.4,1v1.4c0,.7.5,1.2,1.2,1.2h12.6c1,0,1.9.8,1.9,1.9v10.6s0,.2,0,.2h0s0,0,0,0h-23.2c-1,0-1.8-.8-1.8-1.9V7.5c0-.7-.5-1.2-1.2-1.2h-3.7c-.7,0-1.2.5-1.2,1.2v18.1c.3,4.9,4.3,8.8,9.3,8.8h22s3.1,0,3.1,0h1.8c.4,0,.7-.1.9-.4.2-.2.4-.6.4-1v-4.8h0v-.2h0v-.2h0v-9.2c0-6-4.3-9.4-9.4-9.4Z"/>
        <rect class="cls-1" x="59.4" y="37.6" width="6.3" height="6.3" rx="1.2" ry="1.2"/>
      </g>
    </g>
  </g>
</svg>