<?xml version="1.0" encoding="UTF-8"?>
<svg xmlns="http://www.w3.org/2000/svg" version="1.1" viewBox="0 0 80 80">
  <defs>
    <style>
      .cls-1 {
        fill: #fff;
      }
    </style>
  </defs>
  <!-- Generator: Adobe Illustrator 28.6.0, SVG Export Plug-In . SVG Version: 1.2.0 Build 709)  -->
  <g>
    <g id="Layer_1">
      <path class="cls-1" d="M40.1,53.1c6.1,0,11.9,1.2,17.4,3.7,5.3,2.3,10,5.7,14,9.9l-4.4,4.2c-7.1-7.5-16.7-11.7-27.1-11.7s-19.6,4-26.7,11.3l-4.4-4.2c8.2-8.5,19.3-13.2,31.1-13.2Z"/>
      <path class="cls-1" d="M53.1,50.2c-3.5,0-6.8-2.1-8.1-5.6-1.7-4.4.6-9.4,5-11.1,4.4-1.7,9.4.6,11.1,5,1.7,4.4-.6,9.4-5,11.1-1,.4-2,.6-3,.6ZM52.2,39.2c-1.3.5-2,1.9-1.5,3.3.5,1.3,1.9,2,3.3,1.5,1.3-.5,2-1.9,1.5-3.2-.5-1.3-1.9-2-3.3-1.5Z"/>
      <path class="cls-1" d="M49.5,13.4l-23.9,35,5,3.4,23.9-35-5-3.4Z"/>
      <path class="cls-1" d="M26.9,32.3c-1.2,0-2.4-.3-3.5-.8-2.1-.9-3.7-2.7-4.5-4.8-.8-2.1-.7-4.5.2-6.6.9-2.1,2.7-3.7,4.8-4.5,2.1-.8,4.5-.7,6.6.2,2.1.9,3.7,2.7,4.5,4.8,1.7,4.4-.6,9.4-5,11.1-1,.4-2,.6-3,.6h0ZM26.9,21.1c-.3,0-.6,0-.9.2-.6.2-1.1.7-1.4,1.3-.3.6-.3,1.3,0,1.9.2.6.7,1.1,1.3,1.4.6.3,1.3.3,1.9,0,1.3-.5,2-1.9,1.5-3.3-.2-.6-.7-1.1-1.3-1.4-.3-.1-.7-.2-1-.2Z"/>
    </g>
  </g>
</svg>